<?xml version="1.0" standalone="no"?>
<!DOCTYPE svg PUBLIC "-//W3C//DTD SVG 20010904//EN"
 "http://www.w3.org/TR/2001/REC-SVG-20010904/DTD/svg10.dtd">
<svg version="1.0" xmlns="http://www.w3.org/2000/svg"
 width="100.000000pt" height="100.000000pt" viewBox="0 0 100.000000 100.000000"
 preserveAspectRatio="xMidYMid meet">
<metadata>
Created by potrace 1.11, written by Peter Selinger 2001-2013
</metadata>
<g transform="translate(0.000000,100.000000) scale(0.100000,-0.100000)"
fill="#000000" stroke="none">
<path d="M145 701 l-40 -6 -7 -55 c-3 -30 -5 -116 -5 -190 l2 -135 39 0 c43 0
44 1 48 65 l4 45 61 7 c81 9 101 21 125 75 40 90 -1 174 -90 188 -68 11 -97
12 -137 6z m100 -77 c30 -12 59 -94 38 -107 -5 -3 -27 -8 -50 -12 l-43 -7 0
66 c0 69 8 78 55 60z"/>
<path d="M414 688 c-4 -6 -2 -27 4 -47 6 -20 25 -88 43 -151 42 -151 55 -180
78 -180 11 0 26 -2 34 -5 10 -4 20 12 37 57 13 35 32 83 43 108 l20 45 8 -30
c17 -66 61 -171 76 -182 9 -7 32 -13 49 -13 33 0 34 1 59 81 26 84 58 241 59
294 1 27 -2 30 -35 33 l-37 3 -25 -83 c-14 -46 -29 -95 -33 -110 -3 -16 -10
-28 -14 -28 -8 0 -33 56 -70 158 -19 53 -26 63 -44 60 -24 -3 -56 -61 -81
-145 -9 -29 -20 -55 -24 -58 -8 -4 -56 123 -67 176 -5 21 -12 25 -40 26 -19 1
-37 -4 -40 -9z"/>
</g>
</svg>
